<?xml version="1.0" encoding="UTF-8" standalone="no"?>
<svg
   xmlns:figma="http://www.figma.com/figma/ns"
   xmlns:dc="http://purl.org/dc/elements/1.1/"
   xmlns:cc="http://creativecommons.org/ns#"
   xmlns:rdf="http://www.w3.org/1999/02/22-rdf-syntax-ns#"
   xmlns:svg="http://www.w3.org/2000/svg"
   xmlns="http://www.w3.org/2000/svg"
   xmlns:xlink="http://www.w3.org/1999/xlink"
   id="svg70033"
   viewBox="0 0 468.81087 225.69796"
   version="1.1"
   width="468.81088"
   height="225.69795">
  <defs
     id="defs70037">
    <path
       id="A"
       d="m 5.626,17.928 c 0,5.146 -0.393,6.826 -1.439,8.067 C 3.044,27.05 1.55,27.634 0,27.63 l 0.393,3.061 c 2.402,0.033 4.731,-0.835 6.533,-2.437 1.875,-1.953 2.529,-4.653 2.529,-8.797 V 0 H 5.617 v 17.954 z" />
    <path
       id="B"
       d="m 17.741,15.623 0.174,5.85 h -3.358 l -0.218,-3.519 h -0.087 a 7.96,7.96 0 0 1 -2.953,2.948 C 10.073,21.602 8.683,21.96 7.274,21.939 3.96,21.939 0,20.074 0,12.544 V 0 h 3.838 v 11.902 c 0,4.082 1.221,6.826 4.701,6.826 1.092,-0.02 2.153,-0.365 3.052,-0.991 0.899,-0.626 1.594,-1.505 1.999,-2.528 0.233,-0.639 0.351,-1.316 0.349,-1.997 V 0.018 h 3.838 v 15.605 h -0.035 z" />
    <path
       id="C"
       d="M 0.174,7.536 0,0.499 H 3.445 L 3.619,4.176 H 3.706 A 8.31,8.31 0 0 1 6.877,1.039 8.22,8.22 0 0 1 11.2,0.006 c 5.094,0 8.932,4.398 8.932,10.908 0,7.715 -4.614,11.524 -9.595,11.524 A 7.33,7.33 0 0 1 6.85,21.619 7.4,7.4 0 0 1 4.047,19.069 H 3.96 V 30.725 H 0.166 V 7.501 l 0.009,0.035 z m 3.794,5.718 a 8.87,8.87 0 0 0 0.174,1.592 5.98,5.98 0 0 0 2.091,3.285 5.89,5.89 0 0 0 3.657,1.281 c 4.056,0 6.402,-3.369 6.402,-8.286 0,-4.302 -2.224,-7.979 -6.271,-7.979 C 8.66,3.185 7.351,3.682 6.301,4.557 5.251,5.432 4.524,6.635 4.23,7.976 4.076,8.493 3.988,9.028 3.968,9.568 v 3.677 z" />
    <path
       id="D"
       d="m 4.161,0 4.614,12.676 1.352,4.398 h 0.087 l 1.352,-4.478 4.187,-12.587 h 4.056 L 14.06,15.306 C 11.313,22.66 9.446,26.434 6.83,28.739 5.508,29.979 3.887,30.85 2.129,31.264 L 1.17,27.983 C 2.4,27.57 3.54,26.922 4.528,26.074 5.924,24.898 7.029,23.41 7.755,21.728 A 2.83,2.83 0 0 0 8.06,20.796 C 8.026,20.444 7.937,20.1 7.798,19.775 L 0,0.009 h 4.187 z" />
    <path
       id="E"
       d="m 7.022,0 v 6.158 h 5.486 V 9.131 H 7.022 V 20.69 c 0,2.639 0.741,4.17 2.878,4.17 0.75,0.012 1.498,-0.077 2.224,-0.264 l 0.174,2.929 C 11.207,27.913 10.053,28.092 8.896,28.053 8.129,28.1 7.361,27.979 6.645,27.696 5.929,27.413 5.284,26.977 4.752,26.417 3.662,25.265 3.269,23.356 3.269,20.831 V 9.131 H 0 V 6.158 H 3.271 V 1.012 Z" />
    <path
       id="F"
       d="m 3.629,11.928 c 0.087,5.278 3.402,7.451 7.231,7.451 2.002,0.063 3.993,-0.315 5.835,-1.108 l 0.654,2.789 c -2.207,0.935 -4.585,1.387 -6.978,1.328 C 3.881,22.388 0,18.042 0,11.568 0,5.094 3.751,0 9.891,0 c 6.882,0 8.722,6.158 8.722,10.107 -0.006,0.609 -0.05,1.217 -0.131,1.821 H 3.655 Z M 14.872,9.14 C 14.916,6.659 13.869,2.798 9.56,2.798 5.679,2.798 3.986,6.431 3.681,9.14 H 14.88 14.871 Z" />
    <path
       id="G"
       d="M 0.174,7.179 0,0.484 H 3.358 L 3.489,4.698 H 3.663 C 4.623,1.813 6.934,0 9.499,0 c 0.368,-0.005 0.734,0.039 1.09,0.132 V 3.809 C 10.159,3.715 9.72,3.67 9.281,3.677 6.577,3.677 4.667,5.762 4.144,8.682 A 11.14,11.14 0 0 0 3.97,10.503 V 21.939 H 0.174 Z" />
    <path
       id="H"
       d="M 5.894,2.844 C 5.919,3.432 5.771,4.014 5.469,4.516 5.167,5.018 4.723,5.42 4.194,5.668 3.665,5.916 3.075,6.001 2.499,5.911 A 2.94,2.94 0 0 1 0.956,5.163 2.98,2.98 0 0 1 0.085,3.677 C -0.053,3.106 -0.02,2.506 0.18,1.953 A 2.97,2.97 0 0 1 1.208,0.574 2.93,2.93 0 0 1 2.823,0.003 C 3.604,-0.03 4.365,0.25 4.941,0.783 5.517,1.316 5.859,2.057 5.893,2.844 Z" />
    <path
       id="I"
       d="M 18.265,7.134 C 10.415,7.134 3.559,4.258 0,0 c 1.325,3.82 3.796,7.131 7.069,9.473 3.273,2.342 7.187,3.6 11.2,3.6 4.013,0 7.927,-1.258 11.2,-3.6 C 32.742,7.131 35.213,3.82 36.538,0 32.971,4.258 26.115,7.134 18.265,7.134 Z" />
    <path
       id="J"
       d="m 18.273,5.939 c 7.85,0 14.706,2.877 18.265,7.134 C 35.213,9.253 32.742,5.942 29.469,3.6 26.196,1.258 22.282,0 18.269,0 14.256,0 10.342,1.258 7.069,3.6 3.796,5.942 1.325,9.253 0,13.073 3.567,8.824 10.423,5.939 18.273,5.939 Z" />
    <path
       id="K"
       d="M 7.428,3.583 A 3.77,3.77 0 0 1 6.892,5.692 C 6.51,6.326 5.951,6.831 5.284,7.144 4.617,7.457 3.874,7.564 3.147,7.45 2.42,7.336 1.743,7.008 1.202,6.506 0.661,6.004 0.279,5.353 0.105,4.632 A 3.78,3.78 0 0 1 0.227,2.459 C 0.48,1.762 0.932,1.157 1.526,0.72 2.12,0.283 2.829,0.033 3.564,0.003 4.547,-0.038 5.505,0.317 6.23,0.988 a 3.76,3.76 0 0 1 1.198,2.596 v 0 z" />
    <path
       id="L"
       d="M 2.275,4.396 C 1.844,4.415 1.417,4.304 1.048,4.078 0.679,3.852 0.385,3.521 0.203,3.126 0.021,2.731 -0.041,2.291 0.025,1.861 0.091,1.431 0.282,1.03 0.574,0.71 0.866,0.39 1.246,0.164 1.665,0.061 2.084,-0.042 2.524,-0.017 2.93,0.133 3.336,0.283 3.687,0.55 3.941,0.902 A 2.21,2.21 0 0 1 3.785,3.686 C 3.394,4.115 2.851,4.37 2.274,4.395 v 0 z" />
    <path
       id="path0_fill"
       d="m 1.74498,5.47533 c 0,1.55802 -0.12464,2.06549 -0.44515,2.43941 C 0.943119,8.23595 0.480024,8.41358 0,8.41331 L 0.124642,9.3036 C 0.86884,9.31366 1.59095,9.05078 2.15452,8.56466 2.45775,8.19487 2.6834,7.76781 2.818,7.30893 2.95261,6.85005 2.99341,6.36876 2.93798,5.89377 V 0 h -1.193 v 5.43972 z" />
    <path
       id="path1_fill"
       d="m 5.50204,4.76309 c 0,0.66772 0,1.26422 0.05341,1.78059 H 4.496 L 4.42478,5.48423 C 4.20318,5.85909 3.88627,6.16858 3.50628,6.38125 3.12628,6.59392 2.69675,6.70219 2.26135,6.69503 1.22861,6.69503 0,6.13415 0,3.84608 V 0.0445149 H 1.193 V 3.6057 c 0,1.23752 0.38283,2.06549 1.46009,2.06549 C 2.87472,5.67358 3.09459,5.63168 3.29982,5.54796 3.50505,5.46424 3.69149,5.34039 3.84822,5.18366 4.00494,5.02694 4.1288,4.84049 4.21252,4.63527 4.29623,4.43004 4.33813,4.21016 4.33575,3.98853 V 0 h 1.19299 v 4.72748 z" />
    <path
       id="path2_fill"
       d="m 0.0534178,2.27264 c 0,-0.82798 0,-1.504604 -0.0534178,-2.118909 H 1.06836 L 1.12177,1.2666 C 1.3598,0.864535 1.70247,0.534594 2.11325,0.311954 2.52404,0.0893145 2.98754,-0.0176786 3.45435,0.00238095 c 1.58473,0 2.77773,1.32653905 2.77773,3.30299905 0,2.33258 -1.43338,3.48997 -2.9825,3.48997 C 2.85309,6.81304 2.45874,6.7281 2.10469,6.54874 1.75064,6.36937 1.44888,6.10166 1.22861,5.77151 v 0 3.56118 H 0.0534178 V 2.29935 Z M 1.22861,4.00872 c 0.00323,0.16154 0.02111,0.32245 0.05342,0.48076 0.10101,0.39531 0.33096,0.74565 0.65345,0.99558 0.3225,0.24994 0.71913,0.3852 1.12714,0.38438 1.25532,0 1.99427,-1.02384 1.99427,-2.51064 0,-1.29983 -0.69443,-2.412704 -1.94975,-2.412704 C 2.61036,0.986777 2.14548,1.20726 1.79965,1.5662 1.45382,1.92514 1.25079,2.3979 1.22861,2.89585 Z" />
    <path
       id="path3_fill"
       d="M 1.31764,0.0178059 2.75102,3.85499 C 2.90237,4.28233 3.06262,4.7987 3.16946,5.18153 3.2941,4.7898 3.42764,4.29123 3.5879,3.82828 L 4.88773,0.0178059 H 6.14305 L 4.36246,4.64735 C 3.47216,6.87309 2.92908,8.02158 2.11,8.71601 1.69745,9.09283 1.19448,9.35658 0.649917,9.48166 L 0.356119,8.48453 C 0.736886,8.35942 1.09038,8.16304 1.39777,7.90584 1.8321,7.55188 2.17678,7.10044 2.4038,6.5882 2.45239,6.49949 2.48551,6.40314 2.50173,6.3033 2.49161,6.19586 2.46457,6.0907 2.42161,5.9917 L 0,0 h 1.29983 z" />
    <path
       id="path4_fill"
       d="M 2.19013,0 V 1.86962 H 3.8995 v 0.8903 H 2.19013 v 3.50777 c 0,0.80127 0.23148,1.26422 0.8903,1.26422 C 3.31442,7.53574 3.54789,7.5088 3.77486,7.45179 L 3.82828,8.34208 C 3.48794,8.45999 3.12881,8.51431 2.76882,8.50234 2.53042,8.51726 2.29161,8.48043 2.06878,8.39437 1.84595,8.30831 1.64438,8.17506 1.47789,8.00377 1.11525,7.51873 0.949826,6.91431 1.01494,6.31221 V 2.75102 H 0 V 1.86072 H 1.03274 V 0.275992 Z" />
    <path
       id="path5_fill"
       d="M 1.17716,3.57899 C 1.153,3.88093 1.19468,4.18451 1.29933,4.46876 1.40398,4.75301 1.5691,5.01114 1.78329,5.22532 1.99747,5.43951 2.2556,5.60463 2.53985,5.70928 2.8241,5.81393 3.12768,5.85561 3.42962,5.83145 4.04033,5.84511 4.64706,5.72983 5.21021,5.49313 l 0.20477,0.8903 C 4.72393,6.66809 3.98085,6.80458 3.23375,6.78406 2.79821,6.81388 2.36138,6.74914 1.95322,6.59427 1.54505,6.43941 1.17522,6.19809 0.869071,5.88688 0.562928,5.57566 0.327723,5.2019 0.179591,4.79125 0.0314584,4.38059 -0.0260962,3.94276 0.0108748,3.50777 0.0108748,1.54912 1.17716,0 3.0824,0 c 2.13671,0 2.67089,1.86962 2.67089,3.06262 0.01142,0.18382 0.01142,0.36817 0,0.55199 H 1.15046 Z M 4.66713,2.6887 C 4.70149,2.45067 4.68443,2.20805 4.61709,1.97718 4.54976,1.74631 4.43372,1.53255 4.2768,1.35031 4.11987,1.16808 3.92571,1.0216 3.70739,0.920744 3.48907,0.81989 3.25166,0.767006 3.01118,0.765656 2.52201,0.801064 2.06371,1.01788 1.72609,1.37362 1.38847,1.72935 1.19588,2.19835 1.18607,2.6887 Z" />
    <path
       id="path6_fill"
       d="m 0.0534178,2.19228 c 0,-0.76565 0,-1.424474 -0.0534178,-2.029876 H 1.06836 V 1.43553 H 1.12177 C 1.23391,1.04259 1.4656,0.694314 1.78468,0.439049 2.10376,0.183783 2.4944,0.034196 2.90237,0.0110538 c 0.11229,-0.01473839 0.22602,-0.01473839 0.33831,0 V 1.12393 C 3.10462,1.10817 2.9672,1.10817 2.83114,1.12393 2.427,1.13958 2.04237,1.30182 1.7491,1.58035 1.45583,1.85887 1.27398,2.23462 1.23751,2.63743 1.20422,2.8196 1.18635,3.00425 1.1841,3.18941 V 6.65267 H 0.00890297 V 2.20118 Z" />
    <path
       id="path7_fill"
       d="M 6.03059,2.83565 C 6.06715,3.43376 5.92485,4.02921 5.6218,4.54615 5.31875,5.0631 4.86869,5.47813 4.32893,5.73839 3.78917,5.99864 3.18416,6.09233 2.59097,6.00753 1.99778,5.92272 1.44326,5.66326 0.998048,5.26219 0.552837,4.86113 0.23709,4.33661 0.0910307,3.75546 -0.0550287,3.17431 -0.0247891,2.56283 0.177897,1.99893 0.380583,1.43503 0.746541,0.944221 1.22915,0.589037 1.71176,0.233853 2.28918,0.0303686 2.88784,0.00450543 3.28035,-0.0170932 3.67326,0.0391144 4.04396,0.169896 4.41467,0.300677 4.75587,0.503453 5.04794,0.766561 5.34,1.02967 5.57718,1.34792 5.74582,1.70301 5.91446,2.0581 6.01124,2.44303 6.03059,2.83565 Z" />
    <path
       id="path8_fill"
       d="M 18.6962,7.12238 C 10.6836,7.12238 3.64131,4.24672 0,0 1.41284,3.82041 3.96215,7.1163 7.30479,9.44404 10.6474,11.7718 14.623,13.0196 18.6962,13.0196 c 4.0733,0 8.0488,-1.2478 11.3915,-3.57556 C 33.4303,7.1163 35.9796,3.82041 37.3925,0 33.7601,4.24672 26.7445,7.12238 18.6962,7.12238 Z" />
    <path
       id="path9_fill"
       d="m 18.6962,5.89725 c 8.0127,0 15.055,2.87566 18.6963,7.12235 C 35.9796,9.19922 33.4303,5.90333 30.0877,3.57559 26.745,1.24785 22.7695,0 18.6962,0 14.623,0 10.6474,1.24785 7.30479,3.57559 3.96215,5.90333 1.41284,9.19922 0,13.0196 3.64131,8.76401 10.648,5.89725 18.6962,5.89725 Z" />
    <path
       id="path10_fill"
       d="M 7.59576,3.56656 C 7.64276,4.31992 7.46442,5.07022 7.08347,5.72186 6.70251,6.3735 6.13619,6.89698 5.45666,7.22561 4.77713,7.55424 4.01515,7.67314 3.26781,7.56716 2.52046,7.46117 1.82158,7.13511 1.26021,6.63051 0.698839,6.12591 0.300394,5.46561 0.115637,4.73375 -0.0691191,4.00188 -0.0318219,3.23159 0.222777,2.52099 0.477376,1.8104 0.93775,1.19169 1.54524,0.743685 2.15274,0.295678 2.87985,0.0386595 3.63394,0.00537589 4.12793,-0.0210471 4.62229,0.0501173 5.08878,0.214803 5.55526,0.37949 5.98473,0.63447 6.35264,0.965179 6.72055,1.29589 7.01971,1.69584 7.233,2.1422 7.4463,2.58855 7.56957,3.07256 7.59576,3.56656 Z" />
    <path
       id="path11_fill"
       d="M 2.25061,4.37943 C 1.81886,4.39135 1.39322,4.27535 1.02722,4.04602 0.661224,3.81668 0.371206,3.48424 0.193641,3.09052 0.0160762,2.69679 -0.0411078,2.25935 0.0292804,1.83321 0.0996686,1.40707 0.294486,1.01125 0.589233,0.695542 0.883981,0.37983 1.2655,0.158316 1.68581,0.0588577 2.10611,-0.0406005 2.54644,-0.0135622 2.95143,0.136572 3.35641,0.286707 3.70796,0.553234 3.96186,0.902636 4.21577,1.25204 4.3607,1.66872 4.37842,2.10027 4.39529,2.6838 4.18131,3.25044 3.78293,3.67715 3.38455,4.10387 2.83392,4.35623 2.25061,4.37943 Z" />
  </defs>
  <metadata
     id="metadata70003">
    <rdf:RDF>
      <cc:Work
         rdf:about="">
        <dc:format>image/svg+xml</dc:format>
        <dc:type
           rdf:resource="http://purl.org/dc/dcmitype/StillImage" />
        <dc:title></dc:title>
      </cc:Work>
    </rdf:RDF>
  </metadata>
  <rect
     y="0"
     x="0"
     height="225.69795"
     width="468.81088"
     id="rect70896"
     style="fill:#f7f6f4;fill-opacity:1;stroke-width:2.70893;stroke-linejoin:round" />
  <g
     id="g70031"
     transform="matrix(0.41360775,0,0,0.41360775,6.9659834,-215.1379)">
    <rect
       id="rect70005"
       fill="#8f0000"
       x="1.3828e-05"
       y="540.35999"
       width="512"
       height="392"
       style="color:#000000" />
    <rect
       id="rect70007"
       fill="#ffffff"
       stroke-width="11.772"
       x="5.8860002"
       y="938.25"
       stroke="#ffffff"
       width="500.23001"
       height="108.23"
       ry="0" />
    <g
       id="g70011"
       transform="matrix(4,0,0,4,-162,-450.91)">
      <path
         id="path70009"
         fill="#ffffff"
         d="m 122.88,305.82 c -2.3846,0 -4.3789,2.0376 -4.3789,4.4222 v 0.77344 c -2.2304,0.10995 -4.0388,0.5467 -5.3281,1.4316 -1.5951,1.0948 -2.4675,2.582 -3.1816,3.877 -0.71415,1.295 -1.2996,2.4093 -2.1504,3.1894 -0.72545,0.66525 -1.7997,1.1216 -3.4512,1.3301 -0.21359,-2.192 -2.0615,-3.9512 -4.3052,-3.9512 h -17.167 c -2.3846,0 -4.4165,1.965 -4.4165,4.3496 v 4.2422 c 0,2.3846 2.0319,4.3516 4.4165,4.3516 h 17.167 c 2.3846,0 4.3872,-1.9669 4.3872,-4.3516 v -1.6133 c 9.7257,0.15307 12.467,2.6032 15.594,5.3379 3.0006,2.6241 6.6658,5.3789 15.436,5.4948 v 0.73633 c 0,2.3846 2.0695,4.3799 4.4541,4.3799 h 17.092 c 2.3846,0 4.4541,-1.9952 4.4541,-4.3799 v -4.2422 c 0,-2.3846 -2.0695,-4.3779 -4.4541,-4.3779 h -17.092 c -2.3846,0 -4.4541,1.9933 -4.4541,4.3779 v 0.58594 c -8.0984,-0.0599 -10.486,-2.1557 -13.498,-4.7897 -2.5035,-2.1893 -5.6398,-4.5852 -11.947,-5.5859 1.176,-1.1795 1.8834,-2.5192 2.5137,-3.6621 0.67724,-1.228 1.2899,-2.2006 2.2695,-2.873 0.76303,-0.52371 1.9757,-0.83922 3.6621,-0.93945 v 0.55078 c 0,2.3846 1.9943,4.3356 4.3789,4.3356 h 17.242 c 2.3846,0 4.3789,-1.951 4.3789,-4.3356 v -4.2422 c 0,-2.3846 -1.9943,-4.4222 -4.3789,-4.4222 z m 0,3 h 17.242 c 0.80513,0 1.3789,0.6171 1.3789,1.4222 v 4.2422 c 0,0.80514 -0.57378,1.3356 -1.3789,1.3356 H 122.88 c -0.80513,0 -1.3789,-0.53045 -1.3789,-1.3356 v -4.2422 c 0,-0.80513 0.57378,-1.4222 1.3789,-1.4222 z m -39.962,11.016 h 17.167 c 0.80513,0 1.4165,0.60112 1.4165,1.4062 v 4.2422 c 0,0.80513 -0.61138,1.4082 -1.4165,1.4082 H 82.918 c -0.80513,0 -1.4165,-0.60307 -1.4165,-1.4082 v -4.2422 c 0,-0.80513 0.61137,-1.4062 1.4165,-1.4062 z m 57.038,9.984 h 17.092 c 0.80513,0 1.4541,0.5728 1.4541,1.3779 v 4.168 c 0,0.80513 -0.64898,1.4541 -1.4541,1.4541 h -17.092 c -0.80513,0 -1.4541,-0.64897 -1.4541,-1.4541 v -4.168 c 0,-0.80513 0.64897,-1.3779 1.4541,-1.3779 z"
         style="color:#000000;text-indent:0;text-decoration:none;text-decoration-line:none;text-decoration-style:solid;text-decoration-color:#000000;text-transform:none;white-space:normal;isolation:auto;mix-blend-mode:normal;solid-color:#000000;color-rendering:auto;image-rendering:auto;shape-rendering:auto" />
    </g>
    <g
       id="g70029"
       fill="#8f0000"
       transform="matrix(1.0024,0,0,1.0024,0.26914,-2.6855)">
      <path
         id="path70013"
         d="m 90.51,954.73 v 8.4388 l -7.9801,1.4384 v 59.934 h -13.931 l -28.465,-46.989 -0.49878,0.048 v 37.111 l 7.9805,1.4384 v 8.3908 h -28.929 v -8.3908 l 7.4319,-1.4384 v -50.105 l -7.4319,-1.4384 v -8.4388 h 7.4319 14.001 l 28.302,46.989 0.14384,-0.048 v -37.063 l -6.983,-1.4384 v -8.4388 h 20.971 7.9586 z" />
      <path
         id="path70015"
         d="m 94.501,998.12 q 0,-11.603 6.4729,-18.987 6.5209,-7.4319 17.98,-7.4319 11.507,0 17.98,7.3839 6.5209,7.3839 6.5209,19.035 v 1.0069 q 0,11.699 -6.5209,19.083 -6.4729,7.3359 -17.884,7.3359 -11.555,0 -18.076,-7.3359 -6.4729,-7.384 -6.4729,-19.083 z m 14.001,1.0069 q 0,7.0963 2.4933,11.411 2.4933,4.2674 8.0552,4.2674 5.4181,0 7.9114,-4.3153 2.5412,-4.3153 2.5412,-11.364 v -1.0069 q 0,-6.9044 -2.5412,-11.268 -2.5412,-4.3632 -8.0072,-4.3632 -5.466,0 -7.9593,4.3632 -2.4933,4.3632 -2.4933,11.268 v 1.0069 z" />
      <path
         id="path70017"
         d="m 183.77,1018.2 c -1.6302,2.3973 -3.5641,4.2193 -5.8017,5.466 -2.2056,1.2466 -4.7308,1.8797 -7.5757,1.8797 -6.393,0 -11.364,-2.3432 -14.912,-7.0101 -3.5161,-4.6669 -5.1162,-10.836 -5.1162,-18.508 v -1.0069 c 0,-8.1833 1.6161,-14.784 5.1642,-19.802 3.5481,-5.0185 8.5348,-7.5278 14.96,-7.5278 2.5892,0 4.9226,0.57537 7.0003,1.7261 2.0777,1.1188 4.2289,2.7171 5.7952,4.7948 v -18.604 l -7.9806,-1.4384 v -8.4388 h 7.6513 14.295 v 64.969 l 5.9854,1.4384 v 8.4102 h -18.41 l -1.0548,-6.3484 z m -19.44,-18.172 c 0,4.5391 0.62786,8.1191 2.1302,10.74 1.5343,2.5891 4.0276,3.8837 7.4798,3.8837 2.0457,0 3.8198,-0.4155 5.3222,-1.2466 1.5023,-0.8311 3.0626,-2.0298 4.0216,-3.5961 v -22.008 c -0.95893,-1.6622 -2.5192,-2.9408 -4.0216,-3.8358 -1.4704,-0.927 -3.2125,-1.3905 -5.2263,-1.3905 -3.4203,0 -5.9135,1.5183 -7.4798,4.555 -1.5663,3.0367 -2.2261,7.0003 -2.2261,11.891 v 1.0069 z" />
      <path
         id="path70019"
         d="m 232.87,1025.5 c -7.48,0 -13.457,-2.3974 -17.932,-7.1921 -4.4751,-4.7947 -6.7127,-10.884 -6.7127,-18.268 v -1.9179 c 0,-7.7033 2.1097,-14.048 6.3291,-19.035 4.2513,-4.9865 9.941,-7.4419 17.069,-7.41 7.0007,0 12.435,2.0878 16.302,6.3072 3.8678,4.2194 6.4539,9.93 6.188,17.117 v 7.5004 h -31.36 l -0.0959,0.4109 c 0.25573,3.4203 1.3905,6.2332 3.4043,8.4388 2.0457,2.2056 4.8107,3.3084 8.2949,3.3084 3.1006,0 5.6738,-0.3037 7.7196,-0.911 2.0457,-0.6393 4.2833,-1.6303 6.7127,-2.9728 l 3.7879,8.6306 c -2.1417,1.6941 -4.9226,3.1166 -8.3429,4.2673 -3.3883,1.1507 -7.1763,1.7261 -11.364,1.7261 z m -1.2466,-43.057 c -2.5892,0 -4.635,0.99093 -6.1373,2.9728 -1.5023,1.98187 -2.4293,4.587 -2.781,7.8154 l 0.14385,0.39233 h 17.299 v -1.3992 c 0,-2.9727 -0.83677,-5.3381 -2.2432,-7.0962 -1.3745,-1.7901 -3.4682,-2.6851 -6.2811,-2.6851 z" />
      <path
         id="path70021"
         d="M 291.02,1000.6 H 264.086 V 989.627 H 291.02 Z" />
      <path
         id="path70023"
         d="m 330.82,954.73 c 7.9273,0 14.145,1.822 18.652,5.466 4.5071,3.6121 6.3914,8.6152 6.3914,15.008 0,3.5161 -0.57382,6.5684 -2.4598,9.1576 -1.8859,2.5892 -4.6509,4.6829 -8.2949,6.2811 4.1235,1.2147 7.0802,3.2445 8.8703,6.0894 1.822,2.8129 2.8819,6.3133 2.8819,10.501 v 3.5481 c 0,1.5343 0.15475,2.733 0.76208,3.5961 0.60734,0.8311 1.6142,1.3265 3.0207,1.4863 l 1.2051,0.2398 v 8.4387 h -6.7191 c -4.571,0 -7.7835,-1.2306 -9.6375,-3.6919 -1.854,-2.4613 -2.5972,-5.6419 -2.5972,-9.5416 v -3.9796 c 0,-3.3883 -1.0948,-6.0414 -2.9168,-7.9593 -1.7901,-1.9499 -4.3313,-2.9727 -7.6237,-3.0686 h -11.406 v 18.412 l 6.9825,1.4384 v 8.3908 h -28.929 v -8.3908 l 7.9805,-1.4384 v -50.105 l -7.9805,-1.4384 v -8.4388 h 7.8932 23.926 z m -9.9252,30.782 h 9.6854 c 3.8997,0 6.8245,-0.8311 8.7744,-2.4933 1.9499,-1.6622 2.9248,-4.0596 2.9248,-7.1921 0,-3.1326 -0.97493,-5.6259 -2.9248,-7.4798 -1.9179,-1.8859 -4.7628,-2.8289 -8.5347,-2.8289 h -9.8718 v 19.994 z" />
      <path
         id="path70025"
         d="m 411.73,993.62 h -22.944 v 19.951 h 22.163 l 0.62332,-7.9805 h 10.181 v 18.942 h -54.914 v -8.3908 l 7.9806,-1.4384 v -50.105 l -7.9806,-1.4384 v -8.4451 h 7.5735 47.245 v 18.954 h -10.277 l -0.62332,-7.9806 h -21.972 v 16.959 h 22.944 v 10.973 z" />
      <path
         id="path70027"
         d="m 461.1,954.75 c 8.5347,0 15.567,2.7087 21.097,8.1747 5.5299,5.4341 8.3382,12.392 8.3382,20.927 v 11.555 c 0,8.5667 -2.8082,15.593 -8.3382,21.027 -5.5299,5.4021 -12.562,8.1031 -21.097,8.1031 h -31.416 v -8.3908 l 6.983,-1.5117 v -50.105 l -6.983,-1.3652 v -8.4145 l 7.4424,-0.0733 23.974,0.0754 z m -10.468,10.737 v 48.283 l 9.7484,0.026 c 5.0185,0.013 8.9502,-1.6942 11.795,-5.0825 2.8449,-3.3883 4.3934,-7.7938 4.3934,-13.26 v -11.651 c 0,-5.4021 -1.5486,-9.8189 -4.3934,-13.207 -2.8449,-3.3883 -6.7765,-5.0824 -11.795,-5.0824 l -9.7484,-0.0262 z" />
    </g>
  </g>
  <g
     id="g70738"
     style="mix-blend-mode:normal"
     figma:type="group"
     transform="matrix(4.2179755,0,0,4.2179755,-6640.0353,-10340.666)">
    <g
       id="Group"
       style="mix-blend-mode:normal"
       figma:type="group">
      <g
         id="g"
         style="mix-blend-mode:normal"
         figma:type="group">
        <g
           id="path"
           style="mix-blend-mode:normal"
           figma:type="group">
          <g
             id="path9 fill"
             style="mix-blend-mode:normal"
             figma:type="vector">
            <use
               xlink:href="#path0_fill"
               transform="translate(1640.54,2474.36)"
               fill="#4e4e4e"
               style="mix-blend-mode:normal"
               id="use70675"
               x="0"
               y="0"
               width="100%"
               height="100%" />
          </g>
        </g>
        <g
           id="g70682"
           style="mix-blend-mode:normal"
           figma:type="group">
          <g
             id="path10 fill"
             style="mix-blend-mode:normal"
             figma:type="vector">
            <use
               xlink:href="#path1_fill"
               transform="translate(1645.68,2474.37)"
               fill="#4e4e4e"
               style="mix-blend-mode:normal"
               id="use70679"
               x="0"
               y="0"
               width="100%"
               height="100%" />
          </g>
        </g>
        <g
           id="g70687"
           style="mix-blend-mode:normal"
           figma:type="group">
          <g
             id="path11 fill"
             style="mix-blend-mode:normal"
             figma:type="vector">
            <use
               xlink:href="#path2_fill"
               transform="translate(1653.39,2474.26)"
               fill="#4e4e4e"
               style="mix-blend-mode:normal"
               id="use70684"
               x="0"
               y="0"
               width="100%"
               height="100%" />
          </g>
        </g>
        <g
           id="g70692"
           style="mix-blend-mode:normal"
           figma:type="group">
          <g
             id="path12 fill"
             style="mix-blend-mode:normal"
             figma:type="vector">
            <use
               xlink:href="#path3_fill"
               transform="translate(1660.43,2474.39)"
               fill="#4e4e4e"
               style="mix-blend-mode:normal"
               id="use70689"
               x="0"
               y="0"
               width="100%"
               height="100%" />
          </g>
        </g>
        <g
           id="g70697"
           style="mix-blend-mode:normal"
           figma:type="group">
          <g
             id="path13 fill"
             style="mix-blend-mode:normal"
             figma:type="vector">
            <use
               xlink:href="#path4_fill"
               transform="translate(1667.55,2472.54)"
               fill="#4e4e4e"
               style="mix-blend-mode:normal"
               id="use70694"
               x="0"
               y="0"
               width="100%"
               height="100%" />
          </g>
        </g>
        <g
           id="g70702"
           style="mix-blend-mode:normal"
           figma:type="group">
          <g
             id="path14 fill"
             style="mix-blend-mode:normal"
             figma:type="vector">
            <use
               xlink:href="#path5_fill"
               transform="translate(1672.47,2474.29)"
               fill="#4e4e4e"
               style="mix-blend-mode:normal"
               id="use70699"
               x="0"
               y="0"
               width="100%"
               height="100%" />
          </g>
        </g>
        <g
           id="g70707"
           style="mix-blend-mode:normal"
           figma:type="group">
          <g
             id="path15 fill"
             style="mix-blend-mode:normal"
             figma:type="vector">
            <use
               xlink:href="#path6_fill"
               transform="translate(1679.98,2474.24)"
               fill="#4e4e4e"
               style="mix-blend-mode:normal"
               id="use70704"
               x="0"
               y="0"
               width="100%"
               height="100%" />
          </g>
        </g>
      </g>
    </g>
    <g
       id="g70736"
       style="mix-blend-mode:normal"
       figma:type="group">
      <g
         id="g70714"
         style="mix-blend-mode:normal"
         figma:type="group">
        <g
           id="path16 fill"
           style="mix-blend-mode:normal"
           figma:type="vector">
          <use
             xlink:href="#path7_fill"
             transform="translate(1673.48,2453.69)"
             fill="#767677"
             style="mix-blend-mode:normal"
             id="use70711"
             x="0"
             y="0"
             width="100%"
             height="100%" />
        </g>
      </g>
      <g
         id="g70719"
         style="mix-blend-mode:normal"
         figma:type="group">
        <g
           id="path17 fill"
           style="mix-blend-mode:normal"
           figma:type="vector">
          <use
             xlink:href="#path8_fill"
             transform="translate(1643.21,2484.27)"
             fill="#f37726"
             style="mix-blend-mode:normal"
             id="use70716"
             x="0"
             y="0"
             width="100%"
             height="100%" />
        </g>
      </g>
      <g
         id="g70724"
         style="mix-blend-mode:normal"
         figma:type="group">
        <g
           id="path18 fill"
           style="mix-blend-mode:normal"
           figma:type="vector">
          <use
             xlink:href="#path9_fill"
             transform="translate(1643.21,2457.88)"
             fill="#f37726"
             style="mix-blend-mode:normal"
             id="use70721"
             x="0"
             y="0"
             width="100%"
             height="100%" />
        </g>
      </g>
      <g
         id="g70729"
         style="mix-blend-mode:normal"
         figma:type="group">
        <g
           id="path19 fill"
           style="mix-blend-mode:normal"
           figma:type="vector">
          <use
             xlink:href="#path10_fill"
             transform="translate(1643.28,2496.09)"
             fill="#9e9e9e"
             style="mix-blend-mode:normal"
             id="use70726"
             x="0"
             y="0"
             width="100%"
             height="100%" />
        </g>
      </g>
      <g
         id="g70734"
         style="mix-blend-mode:normal"
         figma:type="group">
        <g
           id="path20 fill"
           style="mix-blend-mode:normal"
           figma:type="vector">
          <use
             xlink:href="#path11_fill"
             transform="translate(1641.87,2458.43)"
             fill="#616262"
             style="mix-blend-mode:normal"
             id="use70731"
             x="0"
             y="0"
             width="100%"
             height="100%" />
        </g>
      </g>
    </g>
  </g>
</svg>
