<?xml version="1.0" encoding="UTF-8" standalone="no"?>
<!DOCTYPE svg PUBLIC "-//W3C//DTD SVG 20010904//EN"
      "http://www.w3.org/TR/2001/REC-SVG-20010904/DTD/svg10.dtd">

<!-- Generated by Svg-Path-Export ScriptFu for Gimp -->

<svg xmlns="http://www.w3.org/2000/svg"
     width="1932" height="2580"
     viewbox="0 0 1932 2580">

  <path __id__="_fcnone_scnone_sw0_nmopen-mind-center-point_"
    fill="none"
    stroke="none"
    stroke-width="0"
    id="open-mind-center-point"
    d="M 1004.65,2073
       C 1004.65,2073 1004.65,2073 1004.65,2073"
/>
  <path __id__="_fcnone_scnone_sw0_nmopen-mind-path_"
    fill="none"
    stroke="none"
    stroke-width="0"
    id="open-mind-path"
    d="M 1748,2088
       C 1748,2088 332,2060 332,2060
       C 332,2060 1748,2088 1748,2088 Z"
/>
  <path __id__="_fcnone_scnone_sw0_nmdraw-path-and-center-point_"
    fill="none"
    stroke="none"
    stroke-width="0"
    id="draw-path-and-center-point"
    d="M 1184,1216
       C 1193,1209 1306,1183 1356,1284
       C 1356,1284 1184,1216 1184,1216 Z"
/>
  <path __id__="_fcnone_scnone_sw0_nmcenter-pt_"
    fill="none"
    stroke="none"
    stroke-width="0"
    id="center-pt"
    d="M 1001,1463
       C 1001,1463 1001,1463 1001,1463"
/>
  <path __id__="_fcblack_scwhite_sw35_nmbackground_"
    fill="black"
    stroke="white"
    stroke-width="35"
    id="background"
    d="M 26,2394
       C 22,2394 70,1650 70,1650
       C 54.7813,1615.33 505.122,1356.57 622.5,1329.5
       C 622.5,1329 609,1310 606.5,1307
       C 366,1324 293.917,1008.01 411.995,1001.87
       C 301.995,767.874 294,472 508,356
       C 717,215 1148,301 1161,442
       C 1164.85,462.808 1268,576 1342,658
       C 1342,658 1357,737.125 1357,737
       C 1356.88,736.875 1406.2,742.204 1406.2,742.204
       C 1475.72,727.381 1501.8,696.879 1535.52,827.057
       C 1548.52,895.057 1583,958 1511,994
       C 1511,994 1459,1018 1459,1018
       C 1459,1018 1456,1112 1456,1112
       C 1457,1114 1483,1114 1485,1113
       C 1611,1046 1622.55,1116.36 1646,1180
       C 1669,1264 1685,1282 1609,1330
       C 1669,1350 1854,1432 1882,1472
       C 1882,1472 1922,2430 1922,2430
       C 1922,2430 30,2394 26,2394 Z"
/>
  <path __id__="_fcwhite_scwhite_sw1_nmface_"
    fill="white"
    stroke="white"
    stroke-width="1"
    id="face"
    d="M 1131,476
       C 1056,614 938,632 800,604
       C 764,601 628,583 576,612
       C 559,650 594,716 610,732
       C 552,824 562,909 646,1058
       C 617,1059 541.788,1050.45 541.83,1050.43
       C 541.83,1050.43 516,1054 516,1054
       C 496.886,1047.12 503.493,1046.34 477.935,1040.72
       C 378.258,1033.05 399.009,1119.55 458,1190
       C 488,1241 585,1303 627,1226
       C 627,1226 638,1264 638,1262
       C 770,1473 787,1494 976,1544
       C 1110,1573 1195,1572 1268,1570
       C 1386,1535 1370.88,1542.75 1399.06,1414.88
       C 1399.11,1414.88 1246.44,1482.25 1164.62,1502.88
       C 1124.41,1514.91 1119.2,1484.41 1114.78,1483.62
       C 1061.84,1463.69 1032.62,1452.34 989.656,1434.81
       C 951.156,1450.28 940.844,1439.62 930.531,1427.25
       C 909.906,1405.59 891.344,1371.91 870.375,1325.5
       C 855.25,1288.38 870.719,1281.84 891.688,1263.62
       C 965.25,1229.25 1295.94,1113.06 1356.78,1091.41
       C 1375.34,1084.53 1394.25,1106.88 1398.03,1122.69
       C 1398.03,1122.34 1416.25,1124.41 1416,1124
       C 1412,1120 1416.31,1039.16 1415.56,1023.69
       C 1317.26,1060.66 1185.38,1117.91 1036.75,1159.81
       C 1021.81,1170.56 999.318,1163.91 987.05,1147.55
       C 948.713,1125.06 926.222,1120.46 879.195,1093.88
       C 850.526,1104.12 835.747,1094.39 818.878,1071.39
       C 796.899,1036.12 779.008,997.273 757.028,947.691
       C 730.959,898.619 723.803,858.749 800.988,826.546
       C 943.09,775.941 1056.57,746.805 1214.99,703.026
       C 1270.82,682.762 1289.85,692.687 1301.01,750.997
       C 1301.01,750.583 1316.73,750.997 1316.73,750.583
       C 1314.24,726.184 1305.85,704.285 1303,693
       C 1243,624 1185,563 1131,476 Z"
/>
  <path __id__="_fcwhite_scwhite_sw1_nmdraw-faces_"
    fill="white"
    stroke="white"
    stroke-width="1"
    id="draw-faces"
    d="M 969.16,990.628
       C 951.269,947.691 957.403,943.602 995.74,928.267
       C 1045.3,907.005 1198.16,850.57 1311.64,815.3
       C 1362.24,795.876 1405.19,780.602 1426.14,774.919
       C 1480.83,759.584 1477.76,769.807 1490.54,808.655
       C 1494.12,831.146 1506.28,893.185 1505.88,913.954
       C 1513.03,956.381 1500.77,951.78 1456.3,969.16
       C 1436.49,977.388 1327.44,1024.05 1292.21,1041.74
       C 1267.68,1051.46 1126.09,1108.2 1091.33,1117.91
       C 1054.52,1129.15 1019.25,1136.31 1004.43,1102.57
       C 988.584,1068.84 982.961,1023.34 969.16,990.628 Z
       M 921.11,978.36
       C 897.441,969.216 802.01,932.867 787.187,933.378
       C 793.32,950.247 833.191,1036.12 847.503,1056.06
       C 860.794,1063.72 934.912,1101.04 962.003,1109.22
       C 952.802,1076.5 926.733,990.628 921.11,978.36 Z
       M 1048.39,1367.35
       C 1055.03,1381.67 1078.55,1429.71 1088.77,1448.63
       C 1061.17,1440.96 968.648,1402.11 952.291,1394.96
       C 936.19,1388.57 931.845,1380.64 929.289,1375.02
       C 922.9,1366.33 908.587,1335.41 904.753,1325.69
       C 894.786,1304.74 894.786,1301.67 918.044,1314.19
       C 947.18,1329.53 1013.37,1355.6 1048.39,1367.35 Z
       M 1092.86,1377.58
       C 1091.67,1378.56 1128.64,1441.47 1139.89,1448.63
       C 1153.18,1469.59 1191.51,1459.87 1211.45,1451.18
       C 1247.08,1442.35 1355.94,1397.32 1454.76,1353.04
       C 1520.19,1324.93 1564.15,1305.5 1588.17,1290.17
       C 1620.89,1272.79 1615.27,1269.72 1614.75,1235.47
       C 1614.75,1235.47 1597.89,1165.45 1596.86,1165.45
       C 1587.15,1132.73 1576.42,1134.26 1541.15,1142.44
       C 1385.76,1189.98 1172.09,1289.15 1117.4,1306.53
       C 1061.17,1323.9 1077.01,1353.55 1092.86,1377.58 Z"
/>
  <path __id__="_fcblack_scblack_sw1_nmface-ear-hole_"
    fill="black"
    stroke="black"
    stroke-width="1"
    id="face-ear-hole"
    d="M 528.795,1165.45
       C 528.795,1165.45 562.276,1226.53 562.276,1226.53
       C 562.276,1226.53 529.817,1225.76 529.817,1225.76
       C 529.817,1225.76 500,1176 500,1176
       C 483,1169 464,1154 476,1126
       C 481.768,1117.91 484.835,1116.12 498,1114
       C 522.406,1114.84 534.162,1127.11 528.795,1165.45 Z
       M 519,1092
       C 497,1071 466,1056 441,1074
       C 422,1104 439,1125 456,1160
       C 456,1143 446,1115 465,1099
       C 481,1082 499,1086 519,1092 Z"
/>
  <path __id__="_fcblack_scblack_sw1_nmface-eyes-mouth_"
    fill="black"
    stroke="black"
    stroke-width="1"
    id="face-eyes-mouth"
    d="M 1087,994
       C 1094,1038 1140,1053 1180,1032
       C 1193,1023 1209,998 1202,968
       C 1196,928 1121,891 1093,961
       C 1131,926 1152,955 1144,982
       C 1138,1012 1104,1011 1087,994 Z
       M 1304,924
       C 1338,943 1354,925 1358,903
       C 1358,875 1327,860 1307,886
       C 1308,836 1394.44,843.414 1411,882
       C 1419.49,913.443 1413.87,928.267 1396.49,949.735
       C 1370.42,972.227 1325,972 1304,924 Z
       M 1204,1360
       C 1195.25,1350.5 1207,1327 1211,1323
       C 1211,1323 1255,1297 1255,1297
       C 1280.25,1287.75 1296,1293.75 1301,1316
       C 1302,1349 1322,1337 1385,1312
       C 1449,1283 1462,1286 1444,1254
       C 1421.01,1218.94 1454.75,1214 1468.5,1209.5
       C 1499.5,1196.5 1521.75,1192.75 1521.25,1208.75
       C 1520.25,1223.25 1522.5,1232 1499.5,1237
       C 1476.5,1243 1475.75,1238.5 1485,1266.75
       C 1501.75,1302 1462,1324 1405,1346
       C 1351,1368 1292,1400 1279,1356
       C 1274,1336 1276,1326 1250,1339
       C 1234.96,1350.48 1224.74,1358.15 1204,1360 Z"
/>
  <path __id__="_fcblack_scwhite_sw35_nmborder-open-mind_"
    fill="black"
    stroke="white"
    stroke-width="35"
    id="border-open-mind"
    d="M 595.912,1906.7
       C 595.912,1875.57 623.706,1838.88 692.636,1840.55
       C 814.072,1834.61 1156.84,1837.64 1328.57,1845.55
       C 1421.71,1847.22 1436.08,1881.26 1443.09,1947.83
       C 1449.37,2054.65 1447.24,2110.5 1441.97,2221.33
       C 1441.39,2280.7 1443.52,2301.98 1357.48,2308.05
       C 1214.01,2314.5 771.758,2304.64 713.204,2302.49
       C 629.821,2299.15 598.691,2296.37 591.465,2214.66
       C 583.682,2124.6 588.685,1963.4 595.912,1906.7 Z"
/>
  <path __id__="_fcwhite_scwhite_sw1_nmtext_"
    fill="white"
    stroke="white"
    stroke-width="1"
    id="text"
    d="M 643.086,2066.84
       C 642.626,2046.12 646.636,1959.88 648.855,1939.91
       C 655.513,1907.07 665.276,1891.09 705.804,1888.17
       C 705.804,1888.17 939.109,1883.54 939.109,1883.54
       C 939.109,1883.54 1310.02,1888.7 1310.02,1888.7
       C 1374.05,1890.2 1393.57,1900.41 1398.01,1950.56
       C 1398.01,1950.56 1401.5,2071.14 1401.5,2071.14
       C 1401.5,2071.14 643.086,2066.84 643.086,2066.84 Z
       M 1270.64,2109
       C 1270.64,2109 1267.09,2162.59 1266.87,2189.33
       C 1267.2,2195.55 1268.09,2199.54 1271.53,2199.54
       C 1271.53,2199.54 1307.47,2199.98 1307.47,2199.98
       C 1319.01,2198.21 1319.66,2101.72 1319.46,2101.9
       C 1319.24,2092.8 1317.68,2085.92 1310.14,2085.92
       C 1310.14,2085.92 1287.95,2085.92 1287.95,2085.92
       C 1270.19,2087.7 1272.41,2097.02 1270.64,2109 Z
       M 1271.53,2210.19
       C 1266.2,2211.52 1265.53,2213.08 1264.65,2218.18
       C 1264.65,2218.18 1264.42,2233.05 1264.42,2233.05
       C 1265.53,2236.93 1266.09,2236.82 1270.64,2237.04
       C 1270.64,2237.04 1301.93,2237.71 1301.93,2237.71
       C 1306.81,2237.26 1308.81,2237.49 1309.47,2231.72
       C 1309.47,2231.72 1310.36,2218.4 1310.58,2218.18
       C 1310.14,2213.41 1310.14,2212.41 1303.48,2211.52
       C 1303.48,2211.52 1271.53,2210.41 1271.53,2210.19 Z
       M 1114.9,2239.1
       C 1104.44,2238.52 1101.83,2238.81 1101.25,2226.32
       C 1100.96,2195.23 1105.9,2126.68 1108.51,2100.53
       C 1109.96,2088.04 1112.58,2085.14 1126.23,2084.85
       C 1126.23,2084.85 1177.65,2084.56 1177.65,2084.27
       C 1222.38,2086.01 1228.15,2121.37 1226.16,2158.34
       C 1224.06,2197.35 1210.18,2238.52 1163.41,2239.1
       C 1163.41,2239.1 1114.9,2239.1 1114.9,2239.1 Z
       M 1070.17,2082.52
       C 1084.11,2084.56 1086.43,2086.59 1086.72,2099.37
       C 1086.72,2099.37 1081.78,2221.09 1081.78,2221.09
       C 1081.2,2229.51 1078.88,2241.13 1068.71,2240.55
       C 1068.42,2240.55 1040.54,2240.26 1040.54,2240.26
       C 1040.54,2240.26 993.476,2162.12 993.476,2162.12
       C 993.476,2162.12 992.023,2221.67 992.314,2221.67
       C 990.861,2232.13 990.28,2240.55 978.37,2240.84
       C 978.37,2240.84 955.131,2240.26 955.131,2240.26
       C 947.578,2240.55 944.964,2233.58 946.126,2226.03
       C 945.545,2202.79 950.483,2111.57 952.807,2095.3
       C 954.26,2086.3 952.807,2082.52 964.427,2081.94
       C 964.717,2081.94 993.185,2082.23 993.185,2082.23
       C 993.185,2082.23 1041.12,2150.79 1041.12,2150.79
       C 1041.12,2150.79 1046.05,2090.95 1046.05,2090.95
       C 1046.35,2085.14 1047.22,2083.68 1054.77,2082.52
       C 1054.77,2082.52 1070.17,2082.52 1070.17,2082.52 Z
       M 877.28,2103.73
       C 878.151,2087.46 878.732,2081.65 896.162,2080.49
       C 896.162,2080.49 910.977,2080.49 910.977,2080.49
       C 921.725,2079.91 924.92,2084.85 923.177,2096.47
       C 919.691,2124.64 916.786,2193.49 917.077,2224.57
       C 916.496,2232.13 917.367,2239.68 900.81,2239.39
       C 900.81,2239.39 881.637,2239.39 881.928,2239.39
       C 873.503,2239.1 872.342,2233.58 870.599,2217.02
       C 869.727,2190.59 874.956,2123.19 877.28,2103.73 Z
       M 742.347,2222.97
       C 742.561,2224.04 743.341,2156.35 742.202,2144.98
       C 742.202,2144.98 766.894,2169.96 766.894,2169.96
       C 770.961,2173.88 774.301,2175.19 777.787,2170.69
       C 777.787,2170.69 794.49,2153.4 794.49,2153.4
       C 793.474,2169.23 791.15,2205.4 792.166,2219.92
       C 792.457,2231.83 794.2,2234.74 802.333,2235.9
       C 802.333,2235.9 827.316,2237.06 827.316,2237.06
       C 836.176,2236.48 836.321,2234.74 839.08,2223.27
       C 843.002,2198.72 844.745,2118.83 844.745,2100.82
       C 845.035,2091.24 842.712,2083.1 832.835,2082.23
       C 832.835,2082.23 813.663,2081.94 813.663,2081.94
       C 808.434,2081.36 806.11,2083.1 802.914,2086.59
       C 802.914,2086.59 773.575,2126.68 773.575,2126.68
       C 773.575,2126.68 735.23,2083.68 735.23,2083.68
       C 735.23,2083.68 702.986,2082.23 703.276,2082.23
       C 692.528,2083.98 693.109,2088.62 693.109,2094.72
       C 687.009,2118.83 686.718,2192.91 689.042,2222.54
       C 689.042,2233.29 694.271,2238.08 700.371,2238.95
       C 700.662,2238.95 731.89,2239.39 731.89,2239.39
       C 740.895,2238.66 741.911,2236.05 742.347,2222.97 Z"
/>
  <path __id__="_fcblack_scwhite_sw1_nmtext2_"
    fill="black"
    stroke="white"
    stroke-width="1"
    id="text2"
    d="M 1148.92,2114.15
       C 1147.88,2114.15 1142.56,2206.83 1142.56,2206.83
       C 1186.95,2208.17 1185.72,2188.43 1190.31,2159.96
       C 1189.06,2140.58 1193.17,2118.99 1148.92,2114.15 Z
       M 723.863,1904.45
       C 688.825,1937.06 691.418,1949.51 686.88,1979.49
       C 686.521,2039.81 713.45,2050.23 745.766,2056.33
       C 786.698,2049.87 805.729,2020.78 810.113,1992.13
       C 817.577,1932.46 771.977,1880.75 723.863,1904.45 Z
       M 838.403,1918.09
       C 838.404,1908.59 839.121,1898.7 850.516,1897.86
       C 869.641,1895.47 881.49,1895.47 902.313,1900.97
       C 950.429,1923.84 930.681,1978.42 914.164,1989.91
       C 905.906,1996.01 874.511,2013.43 874.342,2009.74
       C 874.342,2009.74 873.591,2044.12 873.591,2044.12
       C 873.95,2050.59 870.718,2055.97 860.875,2055.33
       C 860.875,2055.33 841.192,2055.33 841.192,2055.33
       C 839.48,2026.53 837.326,1944.66 838.403,1918.09 Z
       M 964.074,1912.71
       C 964.475,1901.36 973.281,1898.42 979.513,1898.35
       C 979.513,1898.35 1045.58,1898.7 1045.58,1898.7
       C 1048.45,1903.37 1047.73,1920.25 1045.22,1924.92
       C 1045.22,1924.92 1001.77,1924.92 1001.77,1924.92
       C 998.902,1928.51 998.902,1954 1000.7,1957.59
       C 1012.21,1959.93 1024.75,1955.08 1036.99,1956.91
       C 1038.21,1962.24 1040.2,1982.01 1034.81,1988.11
       C 1034.81,1988.11 1002.8,1987.99 1002.8,1987.99
       C 997.466,2000.68 997.107,2009.29 999.979,2018.63
       C 999.979,2018.63 1034.09,2018.63 1034.09,2018.63
       C 1041.99,2019.35 1042.35,2021.5 1042.19,2028.03
       C 1042.83,2036.05 1042.62,2047.03 1037.66,2051.9
       C 992.047,2054.4 961.201,2057.77 961.003,2033.25
       C 961.003,2032.46 958.978,1949.6 964.074,1912.71 Z
       M 1097.07,1908.22
       C 1092.62,1943.95 1096.21,2021.14 1097.07,2042.89
       C 1097.28,2051.3 1099.08,2053.82 1108.47,2053.25
       C 1108.47,2053.25 1136.78,2053.82 1136.78,2053.82
       C 1141.71,2038.78 1136.68,1986.04 1140.01,1982.01
       C 1144.23,1986.05 1181.86,2054.9 1184.18,2054.89
       C 1184.18,2054.89 1214.38,2054.89 1215.41,2054.89
       C 1227.98,2055.97 1226.19,2040.17 1225.53,2025.28
       C 1226.14,2013.16 1226.9,1938.38 1226.9,1913.07
       C 1226.99,1902.38 1226.01,1901.4 1221.16,1900.86
       C 1221.16,1900.86 1201.05,1900.5 1201.05,1900.5
       C 1191.38,1899.67 1186.33,1900.5 1184.09,1909.26
       C 1182.44,1906.17 1182.56,1974.59 1180.98,1982.81
       C 1175.88,1979.63 1150.11,1912.29 1135.34,1898.35
       C 1135.34,1898.35 1110.93,1896.19 1110.93,1896.19
       C 1100.59,1898.75 1098.72,1900.5 1097.07,1908.22 Z
       M 1277.06,1935.16
       C 1269.36,1935.49 1269.7,1935.16 1269.36,1926.12
       C 1269.36,1926.12 1268.69,1912.07 1268.69,1912.07
       C 1269.36,1905.04 1269.36,1902.7 1281.07,1901.7
       C 1291.5,1901.08 1314.87,1900.36 1328.58,1904.38
       C 1354.34,1915.08 1343.64,1960.58 1336.94,1966.61
       C 1313.86,1983.33 1313.86,2005.42 1314.19,2021.47
       C 1314.19,2021.47 1290.79,2021.14 1290.79,2021.14
       C 1284.42,2021.81 1284.08,2019.13 1284.58,2013.89
       C 1282.74,2001.07 1293.11,1972.29 1298.05,1965.2
       C 1298.05,1965.2 1311.85,1951.22 1311.85,1951.22
       C 1319.55,1939.84 1314.53,1934.82 1305.83,1934.82
       C 1305.83,1934.82 1277.06,1935.16 1277.06,1935.16 Z
       M 1288.77,2034.69
       C 1288.77,2034.69 1305.16,2034.86 1305.16,2034.86
       C 1314.03,2034.86 1313.02,2036.03 1314.62,2040.82
       C 1314.62,2040.82 1315.2,2048.91 1315.2,2048.91
       C 1313.86,2056.94 1312.69,2059.45 1304.82,2059.62
       C 1304.82,2059.62 1287.43,2058.95 1287.43,2058.95
       C 1281.74,2058.11 1280.9,2058.28 1279.73,2051.25
       C 1279.73,2051.25 1279.73,2041.21 1279.73,2041.21
       C 1281.41,2035.53 1281.74,2035.19 1288.77,2034.69 Z"
/>
  <path __id__="_fcwhite_scwhite_sw1_nmtext3_"
    fill="white"
    stroke="white"
    stroke-width="1"
    id="text3"
    d="M 744.688,1940
       C 760.487,1939.82 775.568,1955.26 781.672,1973.75
       C 782.39,1996.73 778.26,2011.09 759.948,2017.55
       C 733.019,2018.63 727.274,2005.7 723.145,1977.34
       C 723.504,1962.26 726.017,1946.1 744.688,1940 Z
       M 873.411,1931.2
       C 872.238,1935.86 871.436,1963.16 872.693,1977.16
       C 874.488,1979.49 877.002,1978.95 879.515,1977.88
       C 879.515,1977.88 901.418,1963.16 901.418,1963.16
       C 902.674,1953.28 902.854,1953.46 900.52,1944.3
       C 900.831,1944.3 892.445,1930.98 873.411,1931.2 Z"
/>

</svg>
